<svg width="30" height="21" viewBox="0 0 30 21" fill="none" xmlns="http://www.w3.org/2000/svg">
<path fill-rule="evenodd" clip-rule="evenodd" d="M28.3891 7.22143C28.3936 7.30231 28.3877 7.38446 28.3675 7.46703L26.5607 14.7235C26.4695 15.0887 26.1432 15.3462 25.7681 15.3483L14.9274 15.4033C14.926 15.4033 14.9247 15.4033 14.9232 15.4033H4.08252C3.70534 15.4033 3.37673 15.1449 3.28569 14.7776L1.47889 7.49341C1.45802 7.40914 1.45207 7.32444 1.45732 7.24144C0.758345 7.02055 0.25 6.3638 0.25 5.59001C0.25 4.63449 1.02362 3.8577 1.97463 3.8577C2.92564 3.8577 3.69926 4.63449 3.69926 5.59001C3.69926 6.12757 3.45384 6.60854 3.0696 6.9269L5.33168 9.21508C5.90345 9.79349 6.69673 10.1255 7.50832 10.1255C8.46804 10.1255 9.38301 9.66752 9.95922 8.90095L13.6769 3.95475C13.3646 3.64149 13.1711 3.20862 13.1711 2.73108C13.1711 1.77596 13.9448 0.998779 14.8958 0.998779C15.8468 0.998779 16.6204 1.77596 16.6204 2.73108C16.6204 3.19417 16.4373 3.61425 16.1413 3.92538C16.1423 3.92666 16.1436 3.92795 16.1445 3.92921L19.8351 8.88905C20.4112 9.66284 21.3294 10.1255 22.2918 10.1255C23.1109 10.1255 23.8812 9.805 24.4603 9.22359L26.7366 6.93754C26.3443 6.6196 26.0923 6.1344 26.0923 5.59001C26.0923 4.63449 26.866 3.8577 27.817 3.8577C28.768 3.8577 29.5417 4.63449 29.5417 5.59001C29.5417 6.34294 29.0592 6.98393 28.3891 7.22143ZM26.3844 17.9868C26.3844 17.5318 26.0166 17.1624 25.5631 17.1624H4.3198C3.86624 17.1624 3.49849 17.5318 3.49849 17.9868V19.966C3.49849 20.4218 3.86624 20.7908 4.3198 20.7908H25.5631C26.0166 20.7908 26.3844 20.4218 26.3844 19.966V17.9868Z" fill="#FE5868"/>
</svg>
