<svg width="55" height="58" viewBox="0 0 55 58" fill="none" xmlns="http://www.w3.org/2000/svg">
<path d="M28.227 58.0001C28.181 58.0001 28.136 58.0001 28.09 58.0001C26.1735 57.9988 24.2633 57.7781 22.397 57.3422C22.1526 57.2846 21.941 57.1324 21.8087 56.9191C21.6763 56.7057 21.634 56.4486 21.691 56.2041C21.7171 56.0828 21.7671 55.968 21.8381 55.8662C21.9091 55.7645 21.9996 55.6778 22.1044 55.6115C22.2093 55.5451 22.3263 55.5003 22.4486 55.4796C22.571 55.459 22.6962 55.4628 22.817 55.4911C24.2906 55.8306 25.7936 56.0269 27.305 56.0771V54.2001C27.3009 54.0741 27.3221 53.9486 27.3675 53.8311C27.4129 53.7135 27.4814 53.6063 27.5691 53.5157C27.6567 53.4252 27.7617 53.3531 27.8777 53.304C27.9937 53.2548 28.1185 53.2295 28.2445 53.2295C28.3705 53.2295 28.4952 53.2548 28.6113 53.304C28.7273 53.3531 28.8323 53.4252 28.9199 53.5157C29.0076 53.6063 29.0761 53.7135 29.1215 53.8311C29.1668 53.9486 29.1881 54.0741 29.184 54.2001V56.0691C32.6191 55.9112 35.9756 54.9888 39.009 53.3691L38.083 51.7482C37.9571 51.53 37.9226 51.2708 37.987 51.0272C38.0514 50.7837 38.2096 50.5755 38.427 50.4481C38.5338 50.3856 38.6519 50.345 38.7745 50.3286C38.8972 50.3122 39.0218 50.3205 39.1412 50.3528C39.2607 50.3851 39.3724 50.4408 39.4701 50.5167C39.5677 50.5927 39.6493 50.6874 39.71 50.7952L40.633 52.4131C43.58 50.5188 46.0726 47.9976 47.933 45.0292L46.333 44.0951C46.116 43.9674 45.9582 43.7593 45.8938 43.5159C45.8294 43.2725 45.8636 43.0135 45.989 42.7952C46.0498 42.6875 46.1314 42.5928 46.2291 42.517C46.3267 42.4411 46.4385 42.3854 46.5579 42.3531C46.6772 42.3209 46.8019 42.3127 46.9245 42.329C47.0471 42.3453 47.1652 42.3857 47.272 42.4481L48.872 43.3851C50.5006 40.2619 51.415 36.8159 51.549 33.2961H49.7C49.4481 33.2961 49.2064 33.196 49.0283 33.0178C48.8501 32.8397 48.75 32.598 48.75 32.3461C48.75 32.0941 48.8501 31.8525 49.0283 31.6743C49.2064 31.4962 49.4481 31.3961 49.7 31.3961H51.556C51.422 27.877 50.5076 24.4316 48.879 21.3091L47.279 22.2451C47.1369 22.3289 46.975 22.3731 46.81 22.3732C46.6445 22.373 46.4819 22.3288 46.3389 22.2454C46.1959 22.1619 46.0776 22.0421 45.996 21.8981C45.8704 21.68 45.8359 21.4212 45.9 21.1779C45.964 20.9345 46.1214 20.7262 46.338 20.5981L47.938 19.6652C46.0776 16.6964 43.585 14.1747 40.638 12.2802L39.715 13.8981C39.6336 14.0425 39.5151 14.1626 39.3719 14.2461C39.2287 14.3296 39.0658 14.3734 38.9 14.3732C38.7352 14.3735 38.5732 14.3296 38.431 14.2461C38.2139 14.1185 38.0558 13.9105 37.9912 13.6671C37.9266 13.4237 37.9607 13.1646 38.086 12.9462L39.013 11.3241C35.9797 9.70427 32.6231 8.7819 29.188 8.62415V10.4951C29.188 10.7444 29.0889 10.9835 28.9127 11.1598C28.7364 11.3361 28.4973 11.4352 28.248 11.4352C27.9987 11.4352 27.7596 11.3361 27.5833 11.1598C27.407 10.9835 27.308 10.7444 27.308 10.4951V8.61816C27.032 8.63116 26.748 8.64912 26.44 8.67212L25.431 8.75012C24.5526 8.85272 23.6805 9.00427 22.819 9.2041C22.6981 9.23195 22.5729 9.2355 22.4507 9.2146C22.3284 9.1937 22.2116 9.14881 22.1068 9.0824C22.0021 9.01598 21.9116 8.92942 21.8405 8.82776C21.7695 8.72609 21.7193 8.61131 21.693 8.49011C21.636 8.2456 21.6783 7.98849 21.8107 7.77515C21.943 7.5618 22.1546 7.40971 22.399 7.35217C23.3975 7.12169 24.409 6.95168 25.428 6.84314V5.74316H24.019C23.3977 5.73041 22.8061 5.47456 22.3712 5.03064C21.9363 4.58672 21.6927 3.9901 21.6927 3.36865C21.6927 2.7472 21.9363 2.15046 22.3712 1.70654C22.8061 1.26263 23.3977 1.00689 24.019 0.994141H32.476C33.0973 1.00689 33.6889 1.26263 34.1238 1.70654C34.5587 2.15046 34.8022 2.7472 34.8022 3.36865C34.8022 3.9901 34.5587 4.58672 34.1238 5.03064C33.6889 5.47456 33.0973 5.73041 32.476 5.74316H31.067V6.87512C34.4724 7.27964 37.7582 8.38047 40.72 10.1091C40.74 10.1201 40.761 10.1181 40.78 10.1301C40.799 10.1421 40.809 10.1601 40.827 10.1721C42.4543 11.1304 43.9699 12.2668 45.346 13.5602L47.365 11.5211L46.036 10.1761L50.023 6.14612L54.009 10.1761L50.023 14.2062L48.694 12.8632L46.676 14.9031C47.957 16.2981 49.0804 17.83 50.026 19.4711C50.039 19.4881 50.056 19.5001 50.067 19.5181C50.078 19.5361 50.077 19.5591 50.087 19.5791C52.3014 23.4688 53.4659 27.8677 53.4659 32.3436C53.4659 36.8195 52.3014 41.2184 50.087 45.1082C50.077 45.1282 50.078 45.1491 50.067 45.1681C50.056 45.1871 50.028 45.2172 50.01 45.2432C47.7976 49.0729 44.6342 52.2669 40.826 54.5161C40.808 54.5281 40.798 54.5461 40.779 54.5571C40.7504 54.5714 40.721 54.5841 40.691 54.5951C36.9177 56.7917 32.635 57.9619 28.269 57.9891C28.261 57.9891 28.255 57.9891 28.246 57.9891C28.237 57.9891 28.233 58.0001 28.227 58.0001ZM48.688 10.1862L50.018 11.5311L51.346 10.1862L50.018 8.84216L48.688 10.1862ZM29.188 6.7251V3.8551H32.477C32.603 3.8551 32.7238 3.80502 32.8129 3.71594C32.9019 3.62686 32.952 3.5061 32.952 3.38013C32.952 3.25415 32.9019 3.13327 32.8129 3.04419C32.7238 2.95511 32.603 2.90515 32.477 2.90515H24.02C23.894 2.90515 23.7732 2.95511 23.6841 3.04419C23.5951 3.13327 23.545 3.25415 23.545 3.38013C23.545 3.5061 23.5951 3.62686 23.6841 3.71594C23.7732 3.80502 23.894 3.8551 24.02 3.8551H27.3V6.7251C27.413 6.7201 27.516 6.72514 27.625 6.71814C27.779 6.71814 27.933 6.70508 28.087 6.70508H28.158H28.24C28.544 6.70008 28.856 6.70609 29.183 6.72009L29.188 6.7251ZM13.213 49.4541C12.9611 49.4541 12.7194 49.3541 12.5413 49.1759C12.3631 48.9977 12.263 48.7561 12.263 48.5042C12.263 48.2522 12.3631 48.0106 12.5413 47.8324C12.7194 47.6542 12.9611 47.5541 13.213 47.5541H19.79C20.0419 47.5541 20.2836 47.6542 20.4617 47.8324C20.6399 48.0106 20.74 48.2522 20.74 48.5042C20.74 48.7561 20.6399 48.9977 20.4617 49.1759C20.2836 49.3541 20.0419 49.4541 19.79 49.4541H13.213ZM7.57501 42.8041C7.32306 42.8041 7.08142 42.704 6.90326 42.5259C6.7251 42.3477 6.625 42.1061 6.625 41.8541C6.625 41.6022 6.7251 41.3605 6.90326 41.1824C7.08142 41.0042 7.32306 40.9042 7.57501 40.9042H19.791C20.043 40.9042 20.2846 41.0042 20.4628 41.1824C20.6409 41.3605 20.741 41.6022 20.741 41.8541C20.741 42.1061 20.6409 42.3477 20.4628 42.5259C20.2846 42.704 20.043 42.8041 19.791 42.8041H7.57501ZM26.41 36.1122C26.0677 35.7645 25.804 35.3474 25.6368 34.889C25.4695 34.4307 25.4026 33.9419 25.4405 33.4554C25.4784 32.969 25.6203 32.4964 25.8566 32.0696C26.0928 31.6427 26.418 31.2715 26.81 30.9811L38.975 22.0812C39.1559 21.9496 39.3781 21.8872 39.6011 21.9055C39.8241 21.9239 40.033 22.0217 40.19 22.1812C40.3484 22.3414 40.4453 22.5523 40.4636 22.7769C40.4818 23.0014 40.4204 23.2254 40.29 23.4092L31.49 35.7091C31.2075 36.1047 30.8419 36.4338 30.4189 36.6732C29.9958 36.9126 29.5256 37.0566 29.041 37.0951C28.952 37.1021 28.865 37.1061 28.777 37.1061C28.335 37.1057 27.8976 37.0171 27.4904 36.8456C27.0831 36.674 26.7141 36.4231 26.405 36.1072L26.41 36.1122ZM27.91 32.5171C27.6492 32.7069 27.4573 32.9764 27.3633 33.2849C27.2692 33.5934 27.2782 33.9241 27.3888 34.2271C27.4994 34.53 27.7056 34.7887 27.9763 34.9641C28.2469 35.1395 28.5673 35.222 28.889 35.1991C29.1016 35.1821 29.308 35.1188 29.4937 35.0138C29.6793 34.9088 29.8398 34.7645 29.964 34.5911L35.331 27.0911L27.91 32.5171ZM1.93402 36.1531C1.68207 36.1531 1.44043 36.053 1.26227 35.8749C1.08411 35.6967 0.984009 35.4551 0.984009 35.2031C0.984009 34.9512 1.08411 34.7095 1.26227 34.5314C1.44043 34.3532 1.68207 34.2532 1.93402 34.2532H19.788C20.04 34.2532 20.2816 34.3532 20.4598 34.5314C20.6379 34.7095 20.738 34.9512 20.738 35.2031C20.738 35.4551 20.6379 35.6967 20.4598 35.8749C20.2816 36.053 20.04 36.1531 19.788 36.1531H1.93402ZM5.69299 29.5042C5.44104 29.5042 5.1994 29.404 5.02124 29.2258C4.84308 29.0477 4.74298 28.806 4.74298 28.5541C4.74298 28.3021 4.84308 28.0605 5.02124 27.8823C5.1994 27.7042 5.44104 27.6041 5.69299 27.6041H19.788C20.04 27.6041 20.2816 27.7042 20.4598 27.8823C20.6379 28.0605 20.738 28.3021 20.738 28.5541C20.738 28.806 20.6379 29.0477 20.4598 29.2258C20.2816 29.404 20.04 29.5042 19.788 29.5042H5.69299ZM10.393 22.8531C10.141 22.8531 9.89941 22.753 9.72125 22.5748C9.54309 22.3967 9.44299 22.155 9.44299 21.9031C9.44299 21.6511 9.54309 21.4095 9.72125 21.2313C9.89941 21.0532 10.141 20.9531 10.393 20.9531H19.793C20.045 20.9531 20.2866 21.0532 20.4647 21.2313C20.6429 21.4095 20.743 21.6511 20.743 21.9031C20.743 22.155 20.6429 22.3967 20.4647 22.5748C20.2866 22.753 20.045 22.8531 19.793 22.8531H10.393ZM15.093 16.2031C14.8411 16.2031 14.5994 16.1031 14.4213 15.9249C14.2431 15.7468 14.143 15.5051 14.143 15.2532C14.143 15.0012 14.2431 14.7596 14.4213 14.5814C14.5994 14.4033 14.8411 14.3031 15.093 14.3031H19.793C20.045 14.3031 20.2866 14.4033 20.4647 14.5814C20.6429 14.7596 20.743 15.0012 20.743 15.2532C20.743 15.5051 20.6429 15.7468 20.4647 15.9249C20.2866 16.1031 20.045 16.2031 19.793 16.2031H15.093Z" fill="#FF4361"/>
</svg>
